# xmcd CD database file
# Copyright (C) 1993-1998 Ti Kan
#
# Track frame offsets:
#  182
#  12072
#  23167
#  40042
#  53427
#  67522
#  83887
#  98152
#  112825
#  126067
#  139282
#  157455
#  175215
#  193242
#  207385
#  218035
#
# Disc length: 3184 seconds
#
# Revision: 1
# Processed by: cddbd v1.4b41PL1 Copyright (c) Steve Scherf et al.
# Submitted via: CDWizzard Release:4.22
#
DISCID=d30c6e10
DTITLE=Wilson Pickett - Wilson Pickett featuring: Jackie Moore
DYEAR=1900
DGENRE=
TTITLE0=In The Midnight Hour
TTITLE1=Land Of 1000 Dances
TTITLE2=Seconds
TTITLE3=I'm Gonna Love You
TTITLE4=It's Too Late
TTITLE5=Baby, Don't Weep
TTITLE6=If You Need Me
TTITLE7=I Can't Stop
TTITLE8=Baby, Call On Me
TTITLE9=Give Your Lovin' Right Now
TTITLE10=I'll Never Be The Same
TTITLE11=Peace Breaker
TTITLE12=I'm Down To My Last Heartbreak
TTITLE13=Mustang Sally
TTITLE14=Everybody Needs Somebody To Love
TTITLE15=Precious, Precious
EXTD=
EXTT0=
EXTT1=
EXTT2=
EXTT3=
EXTT4=
EXTT5=
EXTT6=
EXTT7=
EXTT8=
EXTT9=
EXTT10=
EXTT11=
EXTT12=
EXTT13=
EXTT14=
EXTT15=
PLAYORDER=
